<svg viewBox="0 0 20 19" fill="none" xmlns="http://www.w3.org/2000/svg">
<g clip-path="url('#clip0_160_207')">
<path d="M7.53528 16.8889C8.19112 16.8889 8.72278 16.3573 8.72278 15.7014C8.72278 15.0456 8.19112 14.5139 7.53528 14.5139C6.87944 14.5139 6.34778 15.0456 6.34778 15.7014C6.34778 16.3573 6.87944 16.8889 7.53528 16.8889Z" fill="white"></path>
<path d="M14.75 16.8889C15.4058 16.8889 15.9375 16.3573 15.9375 15.7014C15.9375 15.0456 15.4058 14.5139 14.75 14.5139C14.0942 14.5139 13.5625 15.0456 13.5625 15.7014C13.5625 16.3573 14.0942 16.8889 14.75 16.8889Z" fill="white"></path>
<path d="M12.4119 3.69447C12.3879 3.51956 12.3755 3.34325 12.375 3.16669C12.3755 2.99014 12.3879 2.81382 12.4119 2.63892H6.56415L6.9072 3.69447H12.4119Z" fill="white"></path>
<path d="M16.3333 7.12498H16.1117L15.4519 10.0278H7.53526L5.12332 2.39081C5.09723 2.30978 5.05193 2.23626 4.99127 2.17652C4.93062 2.11678 4.85641 2.07261 4.77499 2.04776L2.6111 1.38276C2.54456 1.36231 2.47465 1.35517 2.40535 1.36174C2.33606 1.36832 2.26873 1.38847 2.20723 1.42106C2.08301 1.48688 1.99003 1.59935 1.94874 1.73373C1.90744 1.86811 1.92122 2.01338 1.98704 2.1376C2.05286 2.26182 2.16533 2.3548 2.29971 2.39609L4.19443 2.97665L6.61693 10.6294L5.75138 11.3366L5.68277 11.4053C5.46866 11.652 5.34731 11.9657 5.3396 12.2922C5.3319 12.6188 5.43832 12.9379 5.64054 13.1944C5.78439 13.3694 5.96719 13.5082 6.1743 13.5998C6.38142 13.6915 6.60711 13.7334 6.83332 13.7222H15.6419C15.7819 13.7222 15.9162 13.6666 16.0151 13.5676C16.1141 13.4686 16.1697 13.3344 16.1697 13.1944C16.1697 13.0544 16.1141 12.9202 16.0151 12.8212C15.9162 12.7222 15.7819 12.6666 15.6419 12.6666H6.74888C6.6881 12.6646 6.62889 12.6469 6.57696 12.6152C6.52503 12.5836 6.48213 12.5391 6.45242 12.486C6.42271 12.433 6.40718 12.3731 6.40734 12.3123C6.4075 12.2515 6.42333 12.1918 6.45332 12.1389L7.72527 11.0833H15.8742C15.9962 11.0863 16.1154 11.0469 16.2116 10.9718C16.3079 10.8968 16.3751 10.7907 16.4019 10.6716L17.2305 7.0247C16.9363 7.09219 16.6352 7.12583 16.3333 7.12498Z" fill="white"></path>
<path d="M16.3333 5.80555C17.7908 5.80555 18.9722 4.62408 18.9722 3.16666C18.9722 1.70924 17.7908 0.527771 16.3333 0.527771C14.8759 0.527771 13.6945 1.70924 13.6945 3.16666C13.6945 4.62408 14.8759 5.80555 16.3333 5.80555Z" fill="white"></path>
</g>
<defs>
<clipPath id="clip0_160_207">
<rect width="19" height="19" fill="white" transform="translate(0.5)"></rect>
</clipPath>
</defs>
</svg>
